<?xml version="1.0"?>
<svg xmlns="http://www.w3.org/2000/svg" xmlns:xlink="http://www.w3.org/1999/xlink" version="1.1" id="Layer_1" x="0px" y="0px" viewBox="0 0 64 64" style="enable-background:new 0 0 64 64;" xml:space="preserve" width="64px" height="64px">
    <style type="text/css">
        .st0{fill:#2196F3;}
        .st1{fill:#FFFFFF;}
        .st2{fill:#FFC107;}
    </style>
    <g>
        <circle class="st0" cx="32" cy="32" r="32"/>
        <rect class="st1" x="14" y="20" width="36" height="24" rx="2" ry="2"/>
        <path class="st2" d="M22,34h20v4H22V34z M22,26h20v4H22V26z M22,30h20v2H22V30z"/>
        <path class="st1" d="M34,22h-4c-0.552,0-1,0.448-1,1v18c0,0.552,0.448,1,1,1h4c0.552,0,1-0.448,1-1V23C35,22.448,34.552,22,34,22z"/>
        <path class="st1" d="M48.8,15.2l-6.5,6.5c-0.8-0.5-1.6-0.9-2.5-1.1l-1.1-6.7c-0.1-0.4-0.5-0.7-0.9-0.7h-6.5c-0.4,0-0.8,0.3-0.9,0.7
            l-1.1,6.7c-0.9,0.3-1.7,0.7-2.5,1.1l-6.5-6.5c-0.4-0.4-1-0.4-1.4,0l-4.6,4.6c-0.4,0.4-0.4,1,0,1.4l6.5,6.5c-0.5,0.8-0.9,1.6-1.1,2.5
            l-6.7,1.1c-0.4,0.1-0.7,0.5-0.7,0.9v6.5c0,0.4,0.3,0.8,0.7,0.9l6.7,1.1c0.3,0.9,0.7,1.7,1.1,2.5l-6.5,6.5c-0.4,0.4-0.4,1,0,1.4
            l4.6,4.6c0.4,0.4,1,0.4,1.4,0l6.5-6.5c0.8,0.5,1.6,0.9,2.5,1.1l1.1,6.7c0.1,0.4,0.5,0.7,0.9,0.7h6.5c0.4,0,0.8-0.3,0.9-0.7
            l1.1-6.7c0.9-0.3,1.7-0.7,2.5-1.1l6.5,6.5c0.4,0.4,1,0.4,1.4,0l4.6-4.6c0.4-0.4,0.4-1,0-1.4l-6.5-6.5c0.5-0.8,0.9-1.6,1.1-2.5
            l6.7-1.1c0.4-0.1,0.7-0.5,0.7-0.9v-6.5c0-0.4-0.3-0.8-0.7-0.9l-6.7-1.1c-0.3-0.9-0.7-1.7-1.1-2.5l6.5-6.5c0.4-0.4,0.4-1,0-1.4
            l-4.6-4.6C49.8,14.8,49.2,14.8,48.8,15.2z"/>
    </g>
</svg>

